<?xml version="1.0" encoding="utf-8"?>
<!DOCTYPE svg PUBLIC "-//W3C//DTD SVG 1.1//EN" "http://www.w3.org/Graphics/SVG/1.1/DTD/svg11.dtd">
<svg version="1.1" id="Layer_1" xmlns="http://www.w3.org/2000/svg" xmlns:xlink="http://www.w3.org/1999/xlink" x="0px" y="0px" viewBox="0 0 85 24" enable-background="new 0 0 85 24" xml:space="preserve">
    <g>
        <path fill="#FFFFFF" d="M15.8,18.6l1.7-0.4v-8l-1.9-0.4V7.8H21v10.5l1.7,0.4v2.1h-6.8V18.6z M21,4.7h-3.5V2.1H21V4.7z"/>
        <path fill="#FFFFFF" d="M27.9,4.6v3.2h2.3v2.4h-2.3v6.6c0,0.5,0.1,0.9,0.3,1.1c0.2,0.2,0.5,0.3,0.8,0.3c0.2,0,0.4,0,0.6,0
            c0.2,0,0.4-0.1,0.6-0.1l0.3,2.5c-0.4,0.1-0.8,0.2-1.2,0.3c-0.4,0.1-0.8,0.1-1.2,0.1c-1.2,0-2.1-0.3-2.8-1c-0.6-0.7-1-1.7-1-3.1
            v-6.6h-1.9V7.8h1.9V4.7L27.9,4.6L27.9,4.6z"/>
        <g>
            <path fill="#FFFFFF" d="M39.8,3.3c2,0,3.6,0.4,4.8,1.2c1.1,0.8,1.7,2,1.7,3.6c0,0.8-0.2,1.5-0.6,2.2c-0.4,0.6-1,1.1-1.9,1.4
                c1,0.2,1.8,0.7,2.3,1.4c0.5,0.7,0.8,1.6,0.8,2.5c0,1.7-0.6,2.9-1.6,3.8c-1.1,0.9-2.7,1.3-4.7,1.3h-8.5v-2.1l1.9-0.4V5.8l-1.9-0.4
                V3.3h1.9H39.8z M37.4,10.6h2.5c0.9,0,1.6-0.2,2.1-0.6c0.5-0.4,0.7-0.9,0.7-1.7c0-0.8-0.2-1.4-0.8-1.8S40.8,6,39.8,6h-2.4V10.6z
                 M37.4,13v5h3.2c0.9,0,1.6-0.2,2.1-0.6c0.5-0.4,0.7-1,0.7-1.8c0-0.9-0.2-1.5-0.6-1.9c-0.4-0.4-1.1-0.7-2-0.7H37.4z"/>
            <path fill="#FFFFFF" d="M48,18.6l1.7-0.4v-8l-1.9-0.4V7.8h5.1L53,9.7c0.3-0.7,0.7-1.2,1.2-1.6c0.5-0.4,1-0.6,1.7-0.6
                c0.2,0,0.4,0,0.6,0c0.2,0,0.4,0.1,0.5,0.1l-0.4,3.2l-1.4,0c-0.5,0-0.9,0.1-1.3,0.3c-0.3,0.2-0.6,0.5-0.8,0.8v6.3l1.7,0.4v2.1h-6.8
                L48,18.6L48,18.6z"/>
            <path fill="#FFFFFF" d="M57.8,18.6l1.7-0.4v-8l-1.9-0.4V7.8h5.1l0.2,1.9c0.4-0.7,1-1.2,1.6-1.5c0.6-0.4,1.3-0.6,2.1-0.6
                c1.3,0,2.3,0.4,3.1,1.2c0.7,0.8,1.1,2.1,1.1,3.9v5.6l1.7,0.4v2.1h-6.7v-2.1l1.5-0.4v-5.6c0-0.9-0.2-1.5-0.5-1.8
                c-0.3-0.4-0.9-0.5-1.6-0.5c-0.5,0-0.9,0.1-1.2,0.3S63.2,11,63,11.4v6.9l1.4,0.4v2.1h-6.6C57.8,20.7,57.8,18.6,57.8,18.6z"/>
            <path fill="#FFFFFF" d="M72.8,14.1c0-1.9,0.5-3.5,1.6-4.7c1.1-1.2,2.6-1.8,4.5-1.8c1.9,0,3.4,0.6,4.5,1.8c1.1,1.2,1.6,2.8,1.6,4.7
                v0.2c0,1.9-0.5,3.5-1.6,4.7c-1.1,1.2-2.6,1.8-4.5,1.8c-1.9,0-3.4-0.6-4.5-1.8c-1.1-1.2-1.6-2.8-1.6-4.7L72.8,14.1L72.8,14.1z
                 M76.3,14.4c0,1.2,0.2,2.1,0.6,2.8c0.4,0.7,1.1,1.1,2,1.1c0.9,0,1.6-0.4,2-1.1c0.4-0.7,0.6-1.7,0.6-2.8v-0.2
                c0-1.1-0.2-2.1-0.6-2.8c-0.4-0.7-1.1-1.1-2-1.1c-0.9,0-1.6,0.4-2,1.1c-0.4,0.7-0.6,1.7-0.6,2.8L76.3,14.4L76.3,14.4z"/>
        </g>
        <g>
            <path fill="#FFFFFF" d="M14.1,13.1c-0.5-0.7-1.3-1.2-2.4-1.4c0.8-0.3,1.4-0.8,1.9-1.4c0.4-0.6,0.6-1.4,0.6-2.2
                c0-1.6-0.6-2.8-1.7-3.6c-0.7-0.5-1.6-0.9-2.7-1V0H7.6v3.3H5.5V0H3.3v3.3H1.9H0v2.1l1.9,0.4v12.5L0,18.6v2.1h3.3V24h2.2v-3.3h2.2
                V24h2.2v-3.3c1.4-0.1,2.6-0.6,3.5-1.2c1.1-0.9,1.7-2.1,1.7-3.8C14.9,14.7,14.7,13.8,14.1,13.1z M5.5,6h2.3c1,0,1.8,0.2,2.3,0.6
                s0.8,1,0.8,1.8c0,0.7-0.2,1.3-0.8,1.7s-1.2,0.6-2.2,0.6H5.5V6z M10.7,17.4C10.2,17.8,9.5,18,8.6,18H5.5v-5h3.4
                c0.9,0,1.5,0.2,2,0.7c0.4,0.5,0.6,1.1,0.6,2C11.4,16.4,11.2,17,10.7,17.4z"/>
        </g>
    </g>
</svg>
