<?xml version="1.0" encoding="utf-8"?>
<!DOCTYPE svg PUBLIC "-//W3C//DTD SVG 1.1//EN" "http://www.w3.org/Graphics/SVG/1.1/DTD/svg11.dtd">
<svg version="1.1" id="Layer_1" xmlns="http://www.w3.org/2000/svg" xmlns:xlink="http://www.w3.org/1999/xlink" x="0px" y="0px"
	 viewBox="0 0 32 32" enable-background="new 0 0 32 32" xml:space="preserve">
    <circle fill="#FFFFFF" cx="16" cy="16" r="16"/>
    <path fill-rule="evenodd" clip-rule="evenodd" fill="#EA9639" d="M19.6,13.7c-0.5,2-3.5,1-4.5,0.7l0.9-3.5
	C16.9,11.1,20.1,11.6,19.6,13.7z M19,19.3c-0.5,2.2-4.2,1-5.4,0.7l1-3.9C15.8,16.5,19.6,17.1,19,19.3z M23,13.7
	c0.3-2.1-1.3-3.3-3.5-4l0.7-2.9l-1.8-0.4l-0.7,2.8c-0.5-0.1-0.9-0.2-1.4-0.3L17.1,6l-1.8-0.4l-0.7,2.9c-0.4-0.1-0.8-0.2-1.1-0.3l0,0
	l-2.4-0.6l-0.5,1.9c0,0,1.3,0.3,1.3,0.3c0.7,0.2,0.8,0.6,0.8,1l-0.8,3.3c0,0,0.1,0,0.2,0.1c-0.1,0-0.1,0-0.2,0l-1.1,4.6
	c-0.1,0.2-0.3,0.5-0.8,0.4c0,0-1.3-0.3-1.3-0.3l-0.9,2l2.3,0.6c0.4,0.1,0.8,0.2,1.3,0.3l-0.7,2.9l1.8,0.4l0.7-2.9
	c0.5,0.1,0.9,0.2,1.4,0.4l-0.7,2.9l1.8,0.4l0.7-2.9c3,0.6,5.2,0.3,6.2-2.4c0.8-2.2,0-3.4-1.6-4.3C22,16,22.8,15.3,23,13.7z"/>
</svg>
